PathFileType	4	(X/Y/Z)	C:/Users/opensim2020/Desktop/walking_exp_matlab/subject03_walking10_straight_02.trc																																																																																																																																					
DataRate	CameraRate	NumFrames	NumMarkers	Units	OrigDataRate	OrigDataStartFrame	OrigNumFrames																																																																																																																																	
100	100	7	45	mm	100	1988	347																																																																																																																																	
Frame#	Time	LFHD			RFHD			LBHD			RBHD			C7			T10			CLAV			STRN			RBAK			LSHO			LUPA			LELB			LFRM			LWRA			LWRB			LFIN			RSHO			RUPA			RELB			RFRM			RWRA			RWRB			RFIN			LASI			RASI			LPSI			RPSI			LTHI			LKNE			LTIB			LANK			LHEE			LTOE			RTHI			RKNE			RTIB			RANK			RHEE			RTOE			*39			*40			*41			*42			*43			*44		
		X1	Y1	Z1	X2	Y2	Z2	X3	Y3	Z3	X4	Y4	Z4	X5	Y5	Z5	X6	Y6	Z6	X7	Y7	Z7	X8	Y8	Z8	X9	Y9	Z9	X10	Y10	Z10	X11	Y11	Z11	X12	Y12	Z12	X13	Y13	Z13	X14	Y14	Z14	X15	Y15	Z15	X16	Y16	Z16	X17	Y17	Z17	X18	Y18	Z18	X19	Y19	Z19	X20	Y20	Z20	X21	Y21	Z21	X22	Y22	Z22	X23	Y23	Z23	X24	Y24	Z24	X25	Y25	Z25	X26	Y26	Z26	X27	Y27	Z27	X28	Y28	Z28	X29	Y29	Z29	X30	Y30	Z30	X31	Y31	Z31	X32	Y32	Z32	X33	Y33	Z33	X34	Y34	Z34	X35	Y35	Z35	X36	Y36	Z36	X37	Y37	Z37	X38	Y38	Z38	X39	Y39	Z39	X40	Y40	Z40	X41	Y41	Z41	X42	Y42	Z42	X43	Y43	Z43	X44	Y44	Z44	X45	Y45	Z45
																																																																																																																																								
174	1.73	139.35417	1592.44482	959.2085	128.24054	1596.151	1091.52063	6.03131	1571.00525	951.87585	-0.28183	1573.42627	1082.83716	-48.66882	1403.51416	1013.20563	-85.42722	1087.9032	1014.90924	69.75742	1323.78357	1013.04181	113.59207	1159.96838	1012.06964	-104.60769	1226.68457	1112.16797	20.29109	1358.29443	855.99164	-9.29694	1159.22729	791.23816	-14.82135	1035.245	781.9317	6.25604	906.61517	785.0957	26.15051	790.55981	818.81793	-2.87185	793.19696	770.97028	12.51165	710.71466	782.76575	27.79436	1348.0459	1173	60.27452	1129.65576	1247.0625	99.23232	1023.59497	1258.84387	152.6104	897.67114	1252.02039	204.99161	817.45789	1208.66394	180.61467	801.4577	1253.71912	223.76183	742.63397	1238.40454	86.34496	920.02161	909.56262	68.76227	921.17023	1146.93689	-78.58317	945.41064	944.09882	-87.05386	958.90857	1094.01794	88.21902	623.47174	869.06195	141.94005	457.44592	913.82153	147.66275	266.99771	912.38086	194.56331	62.59465	948.86951	158.69312	29.42439	988.01733	346.16766	36.2449	967.90692	-38.37132	635.26056	1177.79492	-64.81339	456.74127	1144.23792	-179.51959	297.63846	1134.9834	-279.06287	106.02358	1074.90454	-325.22977	92.00552	1018.69843	-153.62993	29.60561	1065.24182	64.12184	1664.45093	1007.85724	74.41219	1670.22717	997.58411	NaN	NaN	NaN	NaN	NaN	NaN	NaN	NaN	NaN	NaN	NaN	NaN
175	1.74	147.41006	1593.5448	958.28876	136.05806	1597.26184	1090.58984	14.10217	1571.79517	950.84009	7.66057	1574.21033	1081.76917	-40.41017	1404.44312	1011.81049	-76.69223	1088.65417	1014.2049	78.10928	1324.71326	1012.38013	122.18733	1161.04578	1011.86639	-96.61329	1227.43774	1110.42883	29.5587	1358.95386	855.03033	0.66723	1159.7605	790.56256	-4.49186	1035.64856	781.57635	16.26634	906.89642	785.40826	35.43049	790.86865	819.42035	6.95323	793.44672	771.26172	22.06178	710.93549	783.43127	35.15711	1349.21179	1172.12915	67.14716	1130.41272	1245.67456	105.59779	1023.98737	1257.16638	157.65233	897.60834	1250.92883	209.50775	816.85132	1207.95837	184.68713	801.13141	1252.9906	227.36197	741.92285	1237.94482	96.06055	921.96814	909.61688	77.58212	921.45123	1146.61108	-69.28649	947.24292	943.48187	-77.93806	959.22308	1093.47314	96.17405	625.31714	868.70642	149.7471	458.43973	913.70056	152.75708	267.51846	911.70593	196.24773	62.70646	949.19116	159.48846	29.77758	987.90155	347.7836	35.39526	968.73621	-29.05378	635.19073	1177.7644	-55.22412	456.64853	1144.98511	-173.17245	299.8634	1135.4917	-276.19946	109.95438	1075.42371	-322.34448	97.32704	1019.09863	-153.18036	29.60482	1065.63342	NaN	NaN	NaN	NaN	NaN	NaN	NaN	NaN	NaN	NaN	NaN	NaN	NaN	NaN	NaN	NaN	NaN	NaN
176	1.75	155.43727	1594.78577	957.33154	143.96223	1598.59949	1089.61853	22.2126	1572.87732	949.77618	15.60262	1575.36609	1080.57886	-32.29214	1405.53662	1010.48596	-68.07468	1089.65283	1013.48285	86.41482	1325.99341	1011.71289	130.67091	1162.38782	1011.74811	-88.66229	1228.45789	1108.83691	38.77767	1359.86133	854.12775	10.9354	1160.55042	789.8634	5.98495	1036.31323	781.24011	26.53136	907.5545	785.53009	45.11113	791.53857	819.87311	17.0231	794.05841	771.4519	31.72601	711.48169	784.05084	42.60936	1350.82605	1171.26953	73.8681	1131.57959	1244.29675	111.73158	1024.93689	1255.73511	162.48663	897.91309	1249.86804	213.68732	816.51178	1207.36084	188.42928	801.10516	1252.25208	230.5472	741.4502	1237.52539	105.7033	924.15942	909.46008	86.52376	922.0376	1146.13257	-59.91277	949.25928	942.96002	-68.91445	959.85321	1093.0531	104.08949	627.66107	867.60834	157.83545	460.21475	913.25012	157.50903	268.49548	910.91034	196.81593	63.02423	949.25378	159.56589	29.86814	987.7337	348.65927	34.69828	969.56641	-19.20835	635.16949	1177.76294	-44.69027	456.66589	1146.01794	-166.1866	302.21347	1136.07495	-272.78101	114.45869	1076.27222	-318.83337	103.43579	1019.71906	-152.69704	29.59791	1065.849	NaN	NaN	NaN	NaN	NaN	NaN	NaN	NaN	NaN	NaN	NaN	NaN	NaN	NaN	NaN	NaN	NaN	NaN
177	1.76	163.54677	1596.13184	956.39813	151.93297	1600.0293	1088.63892	30.39365	1574.19568	948.63916	23.56386	1576.75891	1079.52185	-24.19121	1406.77759	1009.24469	-59.66186	1090.92175	1012.85413	94.60761	1327.44617	1011.06964	139.21375	1163.98535	1011.59546	-80.61124	1229.73645	1107.49219	47.98043	1361.07361	853.29034	21.23192	1161.52002	789.18262	16.5788	1037.31348	780.74872	36.98278	908.50806	785.5824	54.91119	792.435	820.29132	27.46003	794.98041	771.45258	41.80426	712.34918	784.54083	50.12579	1352.57007	1170.32483	80.54279	1133.05811	1242.91016	117.87332	1026.09448	1254.01416	167.118	898.53333	1248.89319	217.60532	816.3974	1206.77966	191.93248	801.4314	1251.67798	233.37788	741.12048	1237.29639	115.03235	926.48413	909.08105	95.50864	922.93292	1145.40869	-50.69041	951.44012	942.53864	-59.79207	960.66309	1092.68665	112.30814	629.94476	866.43549	164.62233	461.96329	912.96405	161.70198	269.44675	910.21899	197.08034	63.16829	949.27032	159.60898	29.97112	987.52722	349.25543	34.14723	969.49744	-8.77971	635.32568	1177.96106	-33.0554	456.6832	1147.39807	-158.05751	304.87631	1136.96692	-268.52777	119.46187	1077.30432	-314.46133	110.31135	1020.45886	-152.02119	29.62347	1066.00439	87.94404	1668.09778	1003.55072	NaN	NaN	NaN	NaN	NaN	NaN	NaN	NaN	NaN	NaN	NaN	NaN	NaN	NaN	NaN
178	1.77	171.6545	1597.46631	955.42792	159.8875	1601.49243	1087.63074	38.59355	1575.58484	947.46295	31.5488	1578.40088	1078.36536	-16.06697	1408.27417	1007.78522	-51.17117	1092.27686	1012.16205	102.8489	1329.0752	1010.45502	147.62935	1165.61169	1011.43616	-72.65496	1231.30042	1106.40869	57.13946	1362.4375	852.52411	31.55903	1162.82678	788.4646	27.39585	1038.55554	780.59888	47.742	909.75073	785.66986	65.12515	793.6687	820.55426	38.27699	796.18188	771.3562	52.12806	713.4082	784.94293	57.49094	1354.64429	1169.4292	87.13439	1134.74487	1241.62854	123.7317	1027.64221	1252.63635	171.58875	899.4035	1248.00098	221.26601	816.44153	1206.44824	195.21762	801.96082	1251.20117	235.86484	741.04529	1237.0929	124.31969	928.90491	908.51434	104.487	924.11456	1144.4751	-41.53178	953.66022	942.25916	-50.73684	961.60767	1092.33069	120.57243	632.07684	865.24286	170.8409	463.39218	912.37671	165.04509	270.00488	909.66339	197.2466	63.23653	949.24414	159.65584	30.00622	987.25745	349.60211	33.77202	969.15039	2.03101	635.62006	1178.297	-20.28315	456.68747	1149.2157	-148.61894	307.39511	1138.41125	-263.49136	124.97752	1078.61829	-309.15375	117.87329	1021.44757	-151.20062	29.70589	1065.97986	96.04453	1669.61499	1002.20044	NaN	NaN	NaN	NaN	NaN	NaN	NaN	NaN	NaN	NaN	NaN	NaN	NaN	NaN	NaN
179	1.78	179.76526	1598.74854	954.48016	167.83846	1602.97693	1086.63696	46.66054	1577.04688	946.33612	39.46133	1580.04041	1077.17505	-8.06781	1409.68201	1006.61353	-42.83737	1093.76392	1011.62567	110.90826	1330.72009	1009.97424	156.04384	1167.40674	1011.28381	-64.57271	1232.90332	1105.55408	66.1786	1363.97778	851.8562	41.96992	1164.25793	787.86578	38.56842	1040.00659	780.29736	58.74393	911.20587	785.5509	75.41652	794.97815	820.79895	49.42887	797.61401	771.14807	62.67155	714.64691	785.19592	64.81824	1356.87415	1168.56677	93.55376	1136.61768	1240.40869	129.31239	1029.1748	1251.26648	175.87152	900.47455	1247.177	224.85944	816.77179	1206.11377	198.39862	802.77612	1250.84949	238.21025	741.03027	1236.95422	133.34976	931.25977	907.61926	113.41937	925.54706	1143.41113	-32.54868	955.82343	941.90155	-41.79171	962.78564	1091.84119	128.50557	633.96747	864.09839	176.08287	464.51105	911.39667	167.70052	270.42215	909.08691	197.36594	63.53561	949.07507	159.64943	30.05838	987.02863	349.86282	33.47345	969.02887	13.14178	636.00726	1178.83203	-6.52585	456.63461	1151.41833	-138.06812	310.01724	1140.271	-257.42975	130.82823	1080.23401	-302.92422	126.04288	1022.73608	-150.1563	29.85238	1065.89807	NaN	NaN	NaN	NaN	NaN	NaN	NaN	NaN	NaN	NaN	NaN	NaN	NaN	NaN	NaN	NaN	NaN	NaN
180	1.79	187.74754	1599.88318	953.51697	175.6701	1604.422	1085.6178	54.57241	1578.50195	945.33191	47.23634	1581.73633	1076.12256	-0.12481	1411.19678	1005.39258	-34.48282	1095.14539	1010.74628	118.96063	1332.35168	1009.4892	164.38138	1169.11121	1011.06683	-56.56808	1234.59509	1104.79895	75.11932	1365.52417	851.21185	52.3816	1165.70447	787.21234	49.49771	1041.52869	779.93823	69.84602	912.78467	785.461	87.23691	797.21692	820.29028	60.90326	799.17517	770.81232	73.54637	715.96851	785.37354	72.09918	1359.01978	1167.68994	99.83048	1138.50293	1239.33264	134.9128	1030.78699	1250.07031	180.03546	901.65155	1246.50122	228.55377	817.32275	1205.86914	201.53101	803.6463	1250.58215	240.36177	741.12848	1236.84387	142.22395	933.45728	906.56555	122.01434	927.13965	1141.98376	-23.58918	957.71002	941.37219	-33.02836	964.07404	1091.18835	135.48033	635.47815	863.02039	180.69882	465.19025	910.31879	170.04124	270.82007	908.59515	197.4749	63.7468	949.11719	159.66898	30.14372	986.88263	350.08936	33.09147	969.08038	24.55787	636.42413	1179.48206	7.98814	456.54285	1153.8446	-126.43058	312.61105	1142.4043	-250.47046	136.91086	1082.27917	-295.51996	134.58083	1024.45215	-148.87166	30.03596	1065.82983	112.60605	1672.32556	1000.59906	NaN	NaN	NaN	NaN	NaN	NaN	NaN	NaN	NaN	NaN	NaN	NaN	NaN	NaN	NaN
